<?xml version="1.0" standalone="no"?>
<!DOCTYPE svg PUBLIC "-//W3C//DTD SVG 20010904//EN"
 "http://www.w3.org/TR/2001/REC-SVG-20010904/DTD/svg10.dtd">
<svg version="1.0" xmlns="http://www.w3.org/2000/svg"
 width="2000.000000pt" height="2000.000000pt" viewBox="0 0 2000.000000 2000.000000"
 preserveAspectRatio="xMidYMid meet">

<g transform="translate(0.000000,2000.000000) scale(0.100000,-0.100000)"
fill="#000000" stroke="none">
<path d="M4226 18175 c-153 -39 -301 -155 -361 -283 -21 -44 -34 -62 -45 -58
-8 2 -44 17 -80 32 -92 38 -221 45 -317 16 -84 -26 -172 -81 -246 -155 -196
-197 -247 -442 -141 -681 19 -44 36 -87 37 -94 1 -7 -42 -36 -95 -65 -151 -81
-273 -172 -398 -297 -258 -257 -387 -548 -406 -919 -31 -576 264 -1062 810
-1333 106 -52 107 -53 101 -83 -16 -80 -17 -261 -1 -327 43 -185 176 -370 329
-456 123 -71 300 -92 458 -56 39 9 71 14 73 12 1 -1 12 -34 24 -73 67 -214
254 -379 492 -434 47 -11 109 -22 138 -26 48 -6 52 -5 52 13 0 17 -9 21 -62
27 -301 34 -526 211 -594 465 -10 36 -20 68 -24 73 -3 4 -42 -2 -86 -14 -148
-39 -310 -27 -429 33 -149 75 -293 266 -335 448 -19 78 -16 222 5 298 10 34
16 64 14 66 -2 2 -52 27 -110 54 -164 79 -307 179 -435 306 -195 194 -296 378
-356 647 -19 87 -23 133 -23 284 0 198 11 277 57 425 113 360 377 656 755 848
62 31 112 59 110 62 -36 63 -90 190 -103 240 -22 85 -15 213 16 295 53 142
183 286 317 352 127 63 274 58 415 -13 37 -19 69 -34 71 -34 3 0 14 27 26 59
39 106 136 213 243 267 146 74 333 72 477 -7 41 -22 57 -26 63 -17 12 20 10
23 -32 47 -111 62 -284 86 -404 56z"/>
<path d="M14850 17890 l0 -160 25 0 c24 0 25 2 25 70 0 68 1 70 25 70 24 0 25
-2 25 -70 0 -68 1 -70 25 -70 l25 0 0 160 0 160 -25 0 c-24 0 -25 -2 -25 -70
0 -68 -1 -70 -25 -70 -24 0 -25 2 -25 70 0 68 -1 70 -25 70 l-25 0 0 -160z"/>
<path d="M15040 17890 l0 -160 65 0 c58 0 65 2 65 20 0 17 -7 20 -40 20 l-40
0 0 50 c0 49 1 50 30 50 23 0 30 4 30 20 0 16 -7 20 -30 20 -29 0 -30 1 -30
50 l0 50 40 0 c33 0 40 3 40 20 0 18 -7 20 -65 20 l-65 0 0 -160z"/>
<path d="M15200 17890 l0 -160 65 0 c58 0 65 2 65 20 0 17 -7 20 -40 20 l-40
0 0 140 0 140 -25 0 -25 0 0 -160z"/>
<path d="M15360 17890 l0 -160 65 0 c58 0 65 2 65 20 0 17 -7 20 -40 20 l-40
0 0 140 0 140 -25 0 -25 0 0 -160z"/>
<path d="M15529 18031 c-23 -18 -24 -25 -24 -141 0 -116 1 -123 24 -141 30
-25 76 -24 101 1 18 18 20 33 20 140 0 107 -2 122 -20 140 -25 25 -71 26 -101
1z m71 -40 c15 -30 13 -183 -4 -206 -12 -16 -16 -17 -30 -6 -13 11 -16 34 -16
110 0 62 4 101 12 109 17 17 26 15 38 -7z"/>
<path d="M6490 17938 c-62 -32 -90 -77 -90 -145 0 -30 7 -67 15 -84 l16 -30
-187 -194 -187 -195 -569 0 c-561 0 -568 0 -568 -20 0 -20 7 -20 579 -20 l579
0 33 38 c18 20 103 110 190 200 l157 163 49 -17 c119 -42 229 40 221 167 -5
68 -35 114 -92 140 -54 25 -92 24 -146 -3z"/>
<path d="M3988 17502 c-23 -4 -23 -3 8 -65 36 -70 77 -130 137 -201 l51 -59
-30 -20 c-105 -76 -195 -190 -234 -298 -10 -30 -23 -53 -27 -52 -4 2 -32 11
-61 21 l-52 19 44 17 c115 44 147 177 65 271 -83 94 -241 61 -279 -58 -14 -43
-19 -48 -55 -58 -121 -30 -202 -75 -268 -149 -81 -90 -137 -245 -137 -380 0
-61 0 -61 -36 -76 -20 -8 -53 -26 -73 -38 -36 -23 -37 -23 -71 -5 -41 23 -110
25 -149 5 -136 -71 -127 -258 15 -312 77 -29 161 2 202 74 25 46 29 113 8 154
-16 31 -14 34 53 68 82 41 141 54 244 54 85 0 97 2 97 17 0 13 -12 19 -51 24
-47 7 -140 1 -181 -11 -16 -5 -18 2 -18 53 0 137 53 268 144 359 65 65 118 95
206 117 l55 14 21 -41 c11 -22 35 -51 54 -63 28 -20 30 -23 11 -23 -14 0 -21
-6 -21 -18 0 -15 14 -20 74 -30 213 -36 356 -177 401 -397 9 -44 18 -81 20
-83 2 -3 11 -2 20 2 19 7 15 41 -17 151 -32 113 -86 195 -175 264 -36 29 -42
37 -36 60 12 52 51 127 96 186 46 62 147 145 175 145 9 0 25 8 36 19 31 27
137 60 253 79 86 14 103 19 103 34 0 12 -8 18 -24 18 -53 0 -201 -32 -278 -60
l-82 -30 -29 27 c-47 45 -119 143 -157 213 -26 48 -40 65 -52 62z m-168 -367
c48 -25 70 -62 70 -117 0 -43 -5 -55 -33 -83 -61 -61 -154 -53 -197 17 -66
108 49 240 160 183z"/>
<path d="M13449 17261 c-23 -18 -24 -25 -24 -141 0 -116 1 -123 24 -141 30
-25 76 -24 101 1 18 18 20 33 20 140 0 107 -2 122 -20 140 -25 25 -71 26 -101
1z m71 -40 c15 -30 13 -183 -4 -206 -12 -16 -16 -17 -30 -6 -13 11 -16 34 -16
110 0 62 4 101 12 109 17 17 26 15 38 -7z"/>
<path d="M13712 17260 c-7 -11 -19 -20 -27 -20 -8 0 -15 -9 -15 -20 0 -13 7
-20 20 -20 19 0 20 -7 20 -120 l0 -120 25 0 25 0 0 160 c0 146 -2 160 -18 160
-9 0 -23 -9 -30 -20z"/>
<path d="M13859 17261 c-23 -18 -24 -25 -24 -141 0 -116 1 -123 24 -141 30
-25 76 -24 101 1 18 18 20 33 20 140 0 107 -2 122 -20 140 -25 25 -71 26 -101
1z m71 -40 c15 -30 13 -183 -4 -206 -12 -16 -16 -17 -30 -6 -13 11 -16 34 -16
110 0 62 4 101 12 109 17 17 26 15 38 -7z"/>
<path d="M14059 17261 c-23 -18 -24 -25 -24 -141 0 -116 1 -123 24 -141 30
-25 76 -24 101 1 18 18 20 33 20 140 0 107 -2 122 -20 140 -25 25 -71 26 -101
1z m71 -40 c15 -30 13 -183 -4 -206 -12 -16 -16 -17 -30 -6 -13 11 -16 34 -16
110 0 62 4 101 12 109 17 17 26 15 38 -7z"/>
<path d="M14312 17260 c-7 -11 -19 -20 -27 -20 -8 0 -15 -9 -15 -20 0 -13 7
-20 20 -20 19 0 20 -7 20 -120 l0 -120 25 0 25 0 0 160 c0 146 -2 160 -18 160
-9 0 -23 -9 -30 -20z"/>
<path d="M14512 17260 c-7 -11 -19 -20 -27 -20 -8 0 -15 -9 -15 -20 0 -13 7
-20 20 -20 19 0 20 -7 20 -120 l0 -120 25 0 25 0 0 160 c0 146 -2 160 -18 160
-9 0 -23 -9 -30 -20z"/>
<path d="M14659 17261 c-23 -18 -24 -25 -24 -141 0 -116 1 -123 24 -141 30
-25 76 -24 101 1 18 18 20 33 20 140 0 107 -2 122 -20 140 -25 25 -71 26 -101
1z m71 -40 c15 -30 13 -183 -4 -206 -12 -16 -16 -17 -30 -6 -13 11 -16 34 -16
110 0 62 4 101 12 109 17 17 26 15 38 -7z"/>
<path d="M6706 17128 c-96 -20 -146 -107 -122 -213 7 -30 4 -32 -167 -148
l-173 -117 -332 0 c-325 0 -332 0 -332 -20 0 -20 7 -20 338 -20 l337 0 170
116 c94 64 175 118 181 121 6 2 28 -7 49 -21 108 -73 255 7 255 139 0 108 -97
186 -204 163z"/>
<path d="M11912 16899 c-183 -25 -397 -99 -555 -193 -354 -210 -599 -555 -689
-969 -31 -146 -31 -426 0 -574 84 -392 313 -726 639 -935 l82 -53 1 -337 0
-338 710 0 710 0 0 244 0 244 158 4 c168 6 217 17 323 74 100 55 172 163 190
287 5 34 9 189 9 345 l0 282 151 0 c126 0 150 2 146 14 -3 8 -80 239 -171 514
-109 332 -180 531 -212 593 -71 143 -158 263 -274 379 -204 204 -456 341 -738
400 -114 24 -367 34 -480 19z m366 -39 c205 -26 423 -107 599 -222 202 -133
401 -359 502 -571 74 -156 71 -130 71 -612 l0 -435 -522 -2 -523 -3 -3 -492
-2 -493 -130 0 c-123 0 -130 -1 -130 -20 0 -20 7 -20 315 -20 l315 0 0 -225 0
-225 -670 0 -670 0 0 305 c0 168 2 305 5 305 3 0 27 -11 53 -24 39 -19 185
-76 196 -76 2 0 6 8 8 18 4 15 -7 23 -61 41 -198 70 -374 182 -532 340 -170
171 -278 344 -349 561 -30 91 -65 258 -57 266 3 3 103 -46 223 -108 l219 -113
33 -112 34 -113 -21 -26 c-39 -49 -20 -124 36 -145 53 -20 123 29 123 86 0 34
-30 75 -63 83 -31 7 -33 12 -72 132 l-41 125 -243 124 -244 123 6 157 c6 148
36 343 56 364 5 5 31 -3 59 -17 44 -22 55 -35 95 -108 40 -74 43 -85 31 -103
-35 -50 0 -129 61 -140 38 -7 92 25 101 60 15 58 -24 115 -79 115 -30 0 -35 5
-82 91 -47 85 -54 93 -107 120 -32 16 -58 36 -58 44 0 47 136 306 207 393 l22
27 185 -95 c175 -89 186 -97 186 -123 0 -18 11 -40 30 -59 27 -26 36 -30 68
-25 84 14 110 113 43 164 -22 17 -82 16 -105 -2 -18 -13 -35 -6 -198 77 -98
50 -178 94 -178 98 0 4 45 50 100 104 101 98 296 236 334 236 10 0 112 -48
225 -106 l205 -107 123 43 122 42 27 -21 c38 -30 79 -27 115 8 59 60 20 151
-65 151 -33 0 -74 -36 -84 -72 -7 -30 -15 -34 -122 -70 l-113 -38 -189 97
c-103 53 -188 99 -188 103 0 22 311 111 430 123 78 8 261 6 338 -3z m-794
-706 c9 -8 16 -23 16 -31 0 -21 -29 -53 -48 -53 -22 0 -52 30 -52 51 0 23 26
49 50 49 10 0 26 -7 34 -16z m2135 -777 l120 -357 -125 0 -124 0 0 362 c0 199
2 359 5 357 2 -3 58 -165 124 -362z m-2579 223 c14 -26 5 -57 -21 -71 -43 -23
-92 44 -57 79 20 20 66 15 78 -8z m2408 -752 l3 -128 -156 0 c-148 0 -155 -1
-155 -20 0 -19 7 -20 156 -20 l156 0 -4 -177 c-5 -193 -13 -228 -67 -306 -36
-53 -115 -109 -196 -139 -57 -21 -77 -22 -402 -26 l-343 -3 0 475 0 476 503
-2 502 -3 3 -127z"/>
<path d="M11547 16363 c-20 -19 6 -39 135 -104 l141 -71 98 12 98 12 23 -26
c49 -56 140 -33 153 37 12 62 -25 106 -88 107 -40 0 -87 -34 -87 -63 0 -11
-25 -18 -97 -27 l-98 -12 -136 71 c-75 39 -139 68 -142 64z"/>
<path d="M11632 15890 c-409 -107 -549 -622 -251 -921 183 -185 473 -219 685
-81 167 110 257 273 258 466 0 155 -52 283 -160 391 -141 141 -340 195 -532
145z m261 -35 c148 -39 275 -141 340 -275 154 -315 -43 -681 -393 -732 -158
-23 -306 27 -426 147 -105 104 -154 219 -154 360 0 145 53 268 160 369 133
126 308 174 473 131z"/>
<path d="M11639 15706 c-98 -40 -156 -93 -206 -189 -25 -47 -28 -62 -28 -157
0 -99 2 -110 32 -171 101 -205 356 -271 549 -143 215 143 215 473 1 621 -98
67 -242 83 -348 39z m255 -37 c73 -27 148 -96 183 -167 24 -50 28 -69 28 -147
0 -84 -2 -95 -34 -153 -62 -113 -154 -173 -280 -180 -97 -5 -169 20 -241 85
-196 176 -124 496 130 574 51 15 158 10 214 -12z"/>
<path d="M12976 15659 c-34 -27 -35 -71 -1 -104 27 -28 42 -30 79 -14 35 16
50 63 31 99 -23 45 -66 53 -109 19z"/>
<path d="M16265 16903 c-227 -29 -486 -132 -677 -270 -202 -145 -386 -374
-481 -600 -37 -87 -352 -1041 -346 -1048 2 -2 69 -5 149 -7 l145 -3 6 -330 c3
-189 10 -343 16 -360 51 -146 169 -244 338 -280 39 -8 123 -15 192 -15 l123 0
2 -242 3 -243 713 -3 712 -2 0 337 1 338 72 45 c336 209 574 565 653 975 25
125 25 387 1 510 -124 635 -613 1105 -1242 1195 -67 9 -316 11 -380 3z m470
-62 c128 -28 203 -54 340 -121 374 -181 654 -529 750 -934 62 -260 53 -514
-26 -764 -100 -313 -296 -572 -576 -758 l-82 -55 -37 16 -38 16 92 61 c85 56
113 88 77 88 -8 0 -56 -27 -106 -60 -50 -33 -95 -60 -100 -60 -12 0 -49 42
-49 54 0 6 61 52 135 101 85 57 134 96 135 108 0 9 -6 17 -12 17 -7 0 -71 -41
-142 -90 -71 -49 -133 -87 -138 -84 -4 3 -8 24 -8 47 1 109 55 231 147 328 57
60 71 89 43 89 -5 0 -34 -27 -65 -60 -48 -49 -64 -60 -101 -66 -24 -3 -60 -2
-80 3 l-37 8 92 100 c50 54 91 105 91 112 0 30 -31 8 -127 -94 l-102 -108 -23
23 -23 23 77 76 c71 69 85 93 56 93 -5 0 -43 -29 -83 -65 -57 -52 -74 -62 -79
-49 -11 30 -6 66 15 95 11 16 24 56 30 90 12 77 36 123 103 203 81 95 91 118
91 211 0 94 -20 140 -85 199 -57 51 -103 69 -180 69 -77 0 -122 -17 -180 -69
-59 -54 -82 -104 -89 -199 l-6 -80 -56 55 c-38 38 -61 71 -72 104 -27 78 -25
82 52 121 75 37 91 53 70 65 -8 5 -39 -5 -81 -26 l-68 -34 1 62 c0 35 6 88 12
118 l12 55 140 48 c148 50 166 60 148 78 -9 9 -42 1 -133 -31 -66 -23 -123
-40 -126 -37 -10 10 47 76 98 113 48 35 57 56 27 62 -24 4 -145 -113 -170
-164 -48 -101 -180 -98 -209 4 -5 20 -10 44 -10 52 0 10 44 38 120 75 112 56
147 85 100 85 -11 0 -61 -21 -111 -46 -50 -25 -93 -43 -96 -40 -18 18 68 166
130 225 31 29 45 34 121 45 47 6 91 16 97 23 22 22 -16 26 -114 14 -77 -10
-101 -9 -150 4 -68 18 -86 26 -110 52 -17 19 -14 20 94 36 121 19 129 21 129
43 0 17 -3 17 -115 -1 -131 -22 -136 -21 -124 13 22 61 51 83 135 101 57 13
80 22 82 34 4 21 -21 22 -107 2 -63 -15 -64 -15 -107 10 -59 35 -69 56 -43 89
37 47 134 81 289 100 86 10 357 -3 445 -23z m-783 -99 c-3 -34 1 -42 36 -74
21 -19 45 -37 53 -40 10 -3 8 -11 -8 -34 -76 -108 -39 -198 99 -240 l56 -18
-45 -55 c-55 -67 -89 -137 -105 -215 -30 -150 60 -264 180 -228 20 6 37 10 38
9 1 -1 -2 -27 -8 -57 -17 -93 -5 -227 26 -295 36 -79 66 -117 121 -151 l45
-29 0 -165 c0 -152 2 -168 23 -204 37 -66 155 -109 207 -76 11 7 18 -3 32 -50
30 -95 98 -139 224 -143 62 -2 61 4 20 -93 -69 -164 -30 -311 101 -378 l45
-22 -68 -31 c-38 -17 -93 -38 -121 -47 -40 -13 -53 -22 -53 -37 0 -10 4 -19 9
-19 17 0 154 52 203 76 26 13 50 24 53 24 3 0 5 -137 5 -305 l0 -305 -675 0
-675 0 0 225 0 225 23 4 c12 3 47 8 77 11 159 18 338 89 429 171 47 42 51 49
37 62 -14 14 -20 11 -66 -32 -63 -59 -165 -108 -295 -142 -86 -23 -127 -27
-295 -31 -156 -4 -208 -2 -263 11 -138 32 -235 103 -283 209 -28 60 -29 68
-32 245 l-4 182 156 0 c149 0 156 1 156 20 0 19 -7 20 -155 20 l-155 0 0 150
0 150 -145 0 c-80 0 -145 1 -145 3 0 1 71 218 159 482 103 314 174 513 205
573 147 295 372 516 669 658 51 24 97 44 102 44 6 0 9 -16 7 -38z m822 -1086
c66 -20 110 -57 140 -118 50 -99 31 -185 -63 -292 -63 -73 -100 -145 -108
-216 -16 -135 -175 -179 -243 -67 -27 44 -30 244 -4 254 24 9 44 -23 44 -69 0
-22 7 -52 15 -68 38 -74 105 -32 105 66 l0 55 80 84 c44 46 85 96 91 112 38
101 -86 188 -170 117 -17 -14 -42 -47 -57 -74 -29 -53 -50 -64 -95 -48 -26 9
-29 14 -29 52 0 55 42 139 86 172 34 26 102 52 140 53 11 1 42 -5 68 -13z
m-14 -161 c64 -33 46 -103 -48 -184 -74 -63 -92 -96 -92 -164 0 -93 -34 -83
-42 12 -4 44 -11 60 -33 79 -16 14 -36 22 -46 19 -17 -5 -19 1 -19 48 l0 53
35 -8 c51 -12 94 14 126 75 14 27 39 58 55 67 35 21 29 21 64 3z"/>
<path d="M15475 15655 c-40 -39 -29 -97 22 -116 36 -13 78 5 93 40 31 75 -58
134 -115 76z"/>
<path d="M4615 16526 c-82 -37 -120 -144 -79 -228 15 -33 15 -34 -25 -103 -82
-141 -131 -323 -131 -491 l0 -94 -29 0 c-43 0 -194 -46 -261 -80 -32 -16 -83
-49 -113 -73 l-53 -44 50 101 50 101 95 0 c107 0 134 6 125 30 -5 13 -18 15
-78 10 -90 -8 -198 14 -284 57 -71 35 -170 122 -220 191 l-33 46 71 36 71 36
30 -25 c38 -33 98 -50 141 -42 135 25 188 178 97 281 -56 63 -156 72 -224 21
-47 -37 -59 -60 -65 -136 l-5 -65 -50 -27 c-125 -69 -317 -107 -446 -89 -71
10 -88 6 -89 -21 0 -28 252 -28 357 -1 l72 19 33 -45 c80 -112 178 -192 290
-237 35 -15 64 -27 66 -29 2 -2 -13 -37 -33 -78 -89 -189 -239 -354 -388 -427
-115 -56 -191 -74 -317 -74 -133 1 -215 21 -347 85 -112 55 -219 144 -278 232
l-33 49 43 42 c111 106 39 286 -115 286 -108 0 -186 -96 -166 -205 13 -67 97
-134 171 -135 24 0 34 -8 52 -39 54 -95 181 -205 310 -270 217 -109 488 -114
686 -15 73 37 133 80 196 139 l54 50 -20 -40 c-60 -119 -86 -255 -85 -442 l0
-141 -64 -12 c-127 -24 -256 -102 -336 -203 -34 -43 -37 -52 -23 -59 12 -8 30
6 81 61 50 54 84 80 144 110 104 52 170 65 300 58 120 -6 144 -12 134 -36 -25
-56 -43 -156 -43 -239 -1 -84 1 -93 17 -90 14 3 18 19 23 108 9 156 63 293
148 374 l30 29 31 -26 c67 -57 157 -55 224 3 45 40 60 79 54 141 -9 88 -75
149 -160 149 -105 0 -172 -66 -173 -170 -1 -52 -4 -61 -46 -111 -25 -30 -53
-67 -63 -82 -16 -26 -21 -28 -54 -21 -21 4 -68 10 -107 13 l-70 6 -7 75 c-8
88 5 254 27 343 33 129 114 264 207 345 86 76 241 145 354 158 l50 6 13 -68
c17 -95 63 -228 111 -325 37 -73 43 -80 57 -67 13 14 11 23 -20 84 -107 212
-149 451 -116 654 23 145 123 378 160 373 8 -1 33 -8 56 -14 116 -35 235 83
203 201 -28 103 -140 158 -235 116z m-608 -320 c28 -31 33 -43 33 -87 0 -44
-4 -55 -33 -84 -61 -61 -154 -53 -197 17 -38 63 -22 134 40 176 52 35 113 26
157 -22z m313 -1249 c13 -7 35 -28 48 -47 35 -52 26 -113 -22 -157 -30 -28
-43 -33 -85 -33 -60 0 -105 33 -120 88 -30 108 80 199 179 149z"/>
<path d="M6305 15666 c-39 -17 -84 -70 -92 -107 l-5 -29 -644 0 c-637 0 -644
0 -644 -20 0 -20 7 -20 645 -20 462 0 645 -3 645 -11 0 -6 7 -27 17 -46 52
-111 225 -116 288 -8 47 80 28 173 -47 228 -34 26 -121 33 -163 13z m162 -70
c77 -83 17 -209 -98 -208 -101 2 -158 125 -92 202 34 41 58 51 113 46 35 -3
51 -11 77 -40z"/>
<path d="M5280 14490 c0 -20 7 -20 723 -20 l722 0 170 -116 c94 -64 171 -117
173 -119 2 -2 -1 -20 -7 -41 -24 -85 36 -184 121 -201 78 -16 140 10 186 78
20 28 23 44 20 92 -7 94 -61 148 -155 155 -50 3 -63 0 -96 -22 -21 -14 -40
-26 -43 -26 -3 0 -85 54 -183 120 l-177 120 -727 0 c-720 0 -727 0 -727 -20z
m2026 -243 c112 -102 -10 -272 -145 -203 -39 21 -61 58 -61 106 0 81 47 129
128 130 34 0 49 -6 78 -33z"/>
<path d="M4520 14258 c-42 -29 -80 -83 -80 -115 0 -16 -8 -27 -27 -35 -102
-41 -161 -76 -212 -127 -64 -65 -112 -149 -135 -237 -20 -79 -20 -94 2 -94 14
0 21 13 30 59 28 133 129 269 242 324 79 38 94 38 122 -3 13 -19 39 -45 58
-58 29 -20 45 -23 95 -20 98 6 158 68 158 163 0 95 -60 157 -158 163 -50 3
-66 0 -95 -20z"/>
<path d="M4920 13850 c0 -20 7 -20 568 -20 l569 0 187 -195 187 -194 -16 -30
c-23 -46 -20 -131 8 -172 26 -39 97 -79 142 -79 45 1 109 34 135 71 33 45 38
131 12 179 -40 74 -124 105 -205 76 l-49 -17 -157 163 c-87 90 -172 180 -190
201 l-33 37 -579 0 c-572 0 -579 0 -579 -20z"/>
<path d="M10180 11805 c0 -282 2 -325 15 -325 13 0 15 43 15 325 0 282 -2 325
-15 325 -13 0 -15 -43 -15 -325z"/>
<path d="M10877 11665 c-70 -102 -128 -190 -130 -196 -1 -7 3 -13 9 -16 15 -5
277 373 269 387 -3 6 -9 10 -13 10 -4 0 -64 -83 -135 -185z"/>
<path d="M9235 11790 c-4 -6 -2 -16 3 -23 137 -176 241 -294 252 -287 10 6
-18 48 -111 164 -68 85 -127 155 -131 155 -4 1 -10 -4 -13 -9z"/>
<path d="M11828 11592 c-110 -95 -144 -130 -136 -139 7 -9 43 17 148 107 149
129 157 137 144 150 -5 5 -74 -48 -156 -118z"/>
<path d="M8606 11612 c-3 -5 46 -61 107 -125 85 -89 115 -115 126 -108 11 7
-11 35 -99 125 -62 64 -117 116 -121 116 -4 0 -10 -4 -13 -8z"/>
<path d="M7802 11269 c-26 -13 -55 -39 -70 -62 l-27 -41 -3 -1695 c-2 -1202 0
-1707 8 -1734 14 -47 65 -106 107 -123 26 -12 212 -14 1013 -14 l980 0 0 -195
0 -195 -377 -2 c-350 -3 -378 -4 -381 -20 -3 -17 22 -18 385 -20 213 -2 727
-2 1141 0 743 2 752 2 752 22 0 20 -7 20 -380 20 l-380 0 0 195 0 195 983 0
c937 0 984 1 1023 19 23 10 54 36 70 57 l29 37 8 316 c4 174 6 948 5 1721 -3
1385 -3 1405 -23 1439 -11 19 -37 48 -58 65 l-39 31 -2361 3 -2362 2 -43 -21z
m4768 -41 c18 -13 43 -36 54 -51 l21 -28 0 -1472 0 -1472 -2453 -3 -2452 -2 2
1477 3 1478 22 31 c49 69 -163 64 2429 64 l2341 0 33 -22z m68 -3287 c-3 -218
-3 -220 -28 -247 -54 -58 110 -54 -2422 -54 -2239 0 -2335 1 -2368 18 -22 12
-44 35 -57 62 -22 42 -23 57 -23 242 l0 198 2451 0 2450 0 -3 -219z m-2108
-536 l0 -195 -335 0 -335 0 0 195 0 195 335 0 335 0 0 -195z"/>
<path d="M10129 8025 c-64 -35 -74 -134 -19 -185 79 -74 200 -21 200 87 0 38
-5 50 -34 79 -28 28 -41 34 -77 34 -24 -1 -56 -7 -70 -15z m118 -47 c42 -40
20 -126 -34 -129 -55 -4 -87 15 -97 57 -7 26 15 79 36 87 31 13 73 6 95 -15z"/>
<path d="M5018 7112 l-357 -217 -1 -361 c0 -332 1 -362 18 -376 9 -8 175 -111
367 -227 314 -190 352 -211 370 -200 11 7 171 104 355 216 184 112 338 207
342 211 4 4 8 171 9 372 l1 365 -178 109 c-420 256 -539 326 -553 325 -9 0
-177 -98 -373 -217z m707 -12 c176 -106 326 -198 333 -205 11 -10 -47 -49
-305 -205 -175 -106 -327 -199 -338 -206 -18 -11 -54 8 -355 190 -184 112
-335 207 -335 212 0 10 665 415 674 410 3 -1 150 -90 326 -196z m-670 -463
l320 -194 3 -331 c2 -262 0 -332 -10 -332 -7 0 -159 89 -338 198 l-325 198 -3
337 c-2 320 -1 337 15 328 10 -5 162 -97 338 -204z m1027 -459 c-5 -5 -157
-98 -338 -208 l-329 -199 -3 332 c-1 182 2 335 6 339 5 5 157 98 338 208 l329
200 3 -332 c1 -182 -2 -336 -6 -340z"/>
<path d="M4192 6965 c-61 -51 -66 -129 -12 -184 54 -54 134 -49 185 10 19 24
25 42 25 81 0 44 -4 54 -34 84 -30 30 -40 34 -84 34 -39 0 -57 -6 -80 -25z"/>
<path d="M3685 6896 c-52 -23 -70 -52 -70 -113 0 -50 3 -57 37 -89 31 -28 45
-34 83 -34 64 0 115 46 121 110 6 54 -9 86 -55 117 -38 26 -72 28 -116 9z"/>
<path d="M3158 6714 c-89 -48 -70 -189 29 -223 35 -13 46 -13 79 0 45 17 84
69 84 111 0 44 -29 97 -61 113 -36 19 -96 18 -131 -1z"/>
<path d="M17565 6506 c-39 -17 -93 -78 -101 -114 -3 -15 -8 -33 -10 -40 -2 -7
1 -34 8 -59 14 -58 72 -119 122 -129 l36 -6 0 -362 0 -362 -73 -72 -72 -72
-113 0 c-93 0 -112 -3 -112 -15 0 -13 20 -15 123 -15 l122 0 78 78 77 77 2
369 3 368 39 13 c105 36 156 156 107 253 -45 87 -149 126 -236 88z m128 -30
c77 -32 112 -114 82 -192 -58 -152 -285 -109 -285 55 0 106 106 178 203 137z"/>
<path d="M2703 6431 c-86 -54 -82 -170 7 -216 91 -47 191 25 177 128 -12 86
-111 134 -184 88z"/>
<path d="M14215 6411 c-22 -10 -50 -29 -62 -42 -27 -30 -53 -90 -53 -124 0
-69 67 -158 132 -176 l38 -10 0 -427 0 -427 102 -102 103 -103 162 0 c138 0
163 2 163 15 0 13 -24 15 -156 15 l-157 0 -93 93 -94 94 0 420 0 421 28 7 c86
21 148 107 140 195 -7 66 -41 114 -102 145 -59 30 -97 31 -151 6z m161 -46
c35 -23 68 -98 60 -139 -26 -139 -203 -179 -275 -63 -27 44 -28 121 -2 160 48
73 142 91 217 42z"/>
<path d="M16255 6411 c-55 -24 -101 -80 -110 -130 l-7 -41 -707 0 -706 0 -108
-108 -107 -107 0 -280 0 -280 88 -88 87 -87 143 0 c120 0 142 2 142 15 0 13
-21 15 -133 15 l-132 0 -78 78 -77 77 0 270 0 270 98 98 97 97 498 0 497 0 0
-405 c0 -398 0 -405 20 -405 20 0 20 7 20 405 l0 405 179 0 179 0 21 -44 c13
-26 39 -56 63 -72 35 -24 51 -29 103 -29 79 0 125 29 160 99 30 59 31 97 6
151 -22 48 -54 79 -103 100 -48 20 -84 19 -133 -4z m153 -42 c84 -51 84 -198
0 -249 -52 -32 -94 -34 -146 -8 -83 41 -109 126 -66 210 36 69 139 92 212 47z"/>
<path d="M16690 6262 l0 -147 -95 -95 -95 -95 0 -262 c0 -256 1 -263 20 -263
19 0 20 7 20 263 l0 262 90 90 90 90 0 152 c0 129 -2 153 -15 153 -13 0 -15
-23 -15 -148z"/>
<path d="M14846 6055 c-151 -54 -166 -265 -24 -334 107 -51 228 2 259 114 l10
35 94 0 95 0 0 -235 c0 -202 2 -235 15 -235 13 0 15 34 15 250 l0 250 -109 0
-108 0 -17 45 c-21 53 -71 100 -123 114 -48 14 -59 13 -107 -4z m146 -51 c61
-45 79 -130 42 -195 -27 -48 -100 -83 -154 -74 -79 13 -142 108 -121 182 23
79 75 116 157 110 29 -2 61 -11 76 -23z"/>
<path d="M17315 6055 c-47 -17 -110 -82 -118 -125 l-6 -30 -226 0 -225 0 0
-250 c0 -243 1 -250 20 -250 19 0 20 7 20 235 l0 235 204 0 204 0 7 -27 c21
-87 107 -149 195 -141 156 15 222 199 111 309 -33 33 -92 60 -131 59 -8 -1
-33 -7 -55 -15z m161 -67 c78 -77 57 -196 -43 -240 -135 -60 -264 93 -183 217
33 50 68 66 133 62 51 -3 63 -8 93 -39z"/>
<path d="M2328 6027 c-35 -30 -48 -58 -48 -107 0 -53 22 -84 72 -105 102 -40
196 42 168 146 -22 82 -129 119 -192 66z"/>
<path d="M5912 5729 c-38 -11 -72 -59 -72 -102 0 -35 24 -83 49 -97 27 -14
102 -12 121 3 104 81 28 232 -98 196z"/>
<path d="M1848 5352 l-357 -217 -1 -366 0 -366 367 -223 c321 -194 369 -221
386 -210 11 6 168 102 351 212 182 111 337 206 343 212 9 8 13 102 13 376 l1
365 -358 217 c-197 120 -365 217 -373 217 -8 -1 -176 -98 -372 -217z m742 -35
c168 -102 305 -189 305 -192 0 -4 -151 -99 -335 -210 l-335 -204 -35 20 c-147
84 -635 386 -635 394 0 5 151 100 335 212 l334 202 31 -19 c16 -10 167 -102
335 -203z m-720 -433 l340 -206 0 -328 c0 -181 -3 -331 -7 -333 -5 -2 -160 88
-345 200 l-338 205 0 334 c0 184 2 334 5 334 2 0 157 -93 345 -206z m1041
-467 c-5 -5 -157 -99 -338 -208 l-328 -199 -3 332 c-1 182 1 335 5 339 5 4
157 98 338 208 l330 200 3 -331 c1 -193 -2 -336 -7 -341z"/>
<path d="M4160 5469 c-91 -55 -252 -153 -358 -217 l-192 -116 2 -369 3 -370
85 -52 c47 -29 200 -122 340 -207 140 -85 264 -160 275 -167 19 -12 57 8 388
209 l367 222 0 367 -1 366 -356 215 c-196 118 -364 216 -372 217 -9 2 -90 -42
-181 -98z m535 -146 c171 -104 310 -193 310 -198 0 -6 -151 -101 -334 -212
l-334 -203 -331 201 c-182 110 -335 204 -339 209 -5 4 144 100 330 213 321
194 339 204 363 191 14 -7 165 -98 335 -201z m-720 -433 c176 -106 326 -198
333 -205 9 -8 12 -85 10 -343 l-3 -332 -335 203 -335 203 -3 338 c-1 185 1
335 5 333 5 -2 152 -91 328 -197z m1065 -139 l0 -329 -340 -206 c-187 -113
-343 -206 -345 -206 -3 0 -5 150 -5 334 l0 334 338 204 c185 113 340 203 345
201 4 -2 7 -152 7 -332z"/>
<path d="M6078 5352 l-357 -217 -1 -367 0 -366 366 -223 c338 -205 368 -221
388 -209 11 8 165 101 341 208 176 107 330 200 343 208 l22 14 0 368 0 367
-359 218 c-198 119 -365 217 -373 216 -7 0 -174 -98 -370 -217z m704 -13 c183
-111 337 -205 341 -209 5 -4 -145 -100 -332 -214 l-340 -206 -341 207 c-224
136 -336 210 -328 215 50 31 664 406 665 407 2 1 153 -90 335 -200z m-684
-454 l331 -200 1 -338 0 -339 -32 20 c-18 11 -170 104 -338 205 l-305 185 -3
337 c-1 185 2 335 6 333 5 -1 158 -93 340 -203z m1044 -467 c-4 -4 -156 -98
-338 -207 l-329 -199 -3 331 c-2 257 1 334 10 342 7 7 123 78 258 160 135 81
281 170 325 197 l80 49 3 -333 c1 -182 -1 -335 -6 -340z"/>
<path d="M15618 5323 l-3 -118 -202 -3 -203 -2 0 -165 0 -165 -115 0 c-96 0
-115 -3 -115 -15 0 -12 19 -15 115 -15 l115 0 0 -150 0 -150 -115 0 c-96 0
-115 -3 -115 -15 0 -12 19 -15 115 -15 l115 0 0 -150 0 -150 -115 0 c-96 0
-115 -3 -115 -15 0 -12 19 -15 115 -15 l115 0 2 -172 3 -173 203 -3 202 -2 0
-115 c0 -96 3 -115 15 -115 12 0 15 19 15 115 l0 115 150 0 150 0 0 -115 c0
-96 3 -115 15 -115 12 0 15 19 15 115 l0 115 150 0 150 0 0 -115 c0 -96 3
-115 15 -115 12 0 15 19 15 115 l0 115 203 2 202 3 3 173 2 172 115 0 c96 0
115 3 115 15 0 12 -19 15 -115 15 l-115 0 0 150 0 150 115 0 c96 0 115 3 115
15 0 12 -19 15 -115 15 l-115 0 0 150 0 150 115 0 c96 0 115 3 115 15 0 12
-19 15 -115 15 l-115 0 0 165 0 165 -205 0 -205 0 0 120 c0 99 -3 120 -15 120
-12 0 -15 -22 -17 -117 l-3 -118 -147 -3 -148 -3 0 121 c0 99 -3 120 -15 120
-12 0 -15 -22 -17 -117 l-3 -118 -147 -3 -148 -3 0 121 c0 99 -3 120 -15 120
-12 0 -15 -22 -17 -117z m1072 -803 l0 -650 -725 0 -725 0 0 650 0 650 725 0
725 0 0 -650z"/>
<path d="M15671 4532 c-29 -185 -56 -352 -58 -369 l-6 -33 51 0 50 0 7 53 c11
91 8 87 90 87 l73 0 7 -47 c13 -96 11 -93 72 -93 l54 0 -6 33 c-3 17 -28 174
-55 347 -28 173 -53 325 -55 338 -5 21 -10 22 -88 22 l-82 0 -54 -338z m164
23 c14 -93 25 -176 25 -182 0 -9 -19 -13 -60 -13 -57 0 -60 1 -55 23 2 12 14
87 25 167 23 159 31 200 36 185 2 -5 15 -86 29 -180z"/>
<path d="M16180 4500 l0 -370 55 0 55 0 0 370 0 370 -55 0 -55 0 0 -370z"/>
<path d="M17250 5015 c0 -13 42 -15 320 -15 278 0 320 2 320 15 0 13 -42 15
-320 15 -278 0 -320 -2 -320 -15z"/>
<path d="M3204 4766 c-38 -38 -44 -77 -19 -126 17 -33 61 -60 97 -60 33 0 87
36 98 66 19 49 12 84 -24 120 -28 28 -42 34 -76 34 -34 0 -48 -6 -76 -34z"/>
<path d="M5343 4790 c-50 -20 -72 -100 -44 -153 7 -14 28 -33 46 -42 71 -39
155 15 155 98 -1 82 -77 129 -157 97z"/>
<path d="M17250 4765 c0 -13 42 -15 320 -15 278 0 320 2 320 15 0 13 -42 15
-320 15 -278 0 -320 -2 -320 -15z"/>
<path d="M17250 4518 c0 -17 15 -18 178 -18 l177 0 85 -85 85 -85 57 0 c45 0
58 3 58 15 0 11 -12 15 -47 15 -46 0 -50 2 -133 85 l-86 85 -187 3 c-172 2
-187 1 -187 -15z"/>
<path d="M13930 4464 c-45 -20 -68 -41 -91 -86 -55 -107 12 -241 132 -263 85
-16 190 51 205 130 l6 35 289 0 c250 0 289 2 289 15 0 13 -39 15 -290 15 -286
0 -290 0 -290 20 0 49 -50 108 -112 135 -46 19 -93 19 -138 -1z m152 -42 c36
-21 68 -82 68 -128 0 -136 -184 -196 -269 -88 -79 101 12 257 139 238 19 -3
47 -13 62 -22z"/>
<path d="M14367 3952 l-107 -107 -2 -419 -3 -420 -31 -8 c-43 -11 -102 -74
-115 -122 -28 -104 28 -199 134 -228 85 -22 179 29 213 117 l17 45 316 0 316
0 87 87 88 88 0 312 c0 272 -2 313 -15 313 -13 0 -15 -41 -15 -308 l0 -307
-78 -78 -77 -77 -311 0 -311 0 -17 45 c-21 53 -71 100 -126 116 l-40 12 0 411
0 411 98 98 97 97 138 0 c115 0 137 2 137 15 0 13 -23 15 -143 15 l-142 0
-108 -108z m-2 -1001 c65 -37 87 -137 45 -206 -69 -111 -235 -84 -270 45 -10
36 -9 50 5 85 19 51 41 72 92 91 42 15 83 10 128 -15z"/>
<path d="M2689 3941 c-23 -24 -29 -38 -29 -73 0 -52 21 -85 66 -104 42 -18 86
-9 117 25 33 35 41 73 23 115 -19 45 -52 66 -104 66 -35 0 -49 -6 -73 -29z"/>
<path d="M16960 3945 c0 -12 17 -15 95 -15 l95 0 0 -245 0 -245 108 0 108 0
20 -48 c13 -30 36 -60 59 -78 34 -26 46 -29 111 -29 81 0 111 15 151 75 81
118 -5 279 -150 280 -83 0 -150 -49 -178 -130 l-11 -30 -94 0 -94 0 0 240 0
240 -110 0 c-91 0 -110 -3 -110 -15z m679 -362 c41 -30 74 -104 65 -148 -17
-95 -130 -154 -212 -111 -91 47 -113 151 -50 231 44 56 139 70 197 28z"/>
<path d="M2908 3592 l-357 -217 2 -369 2 -369 110 -67 c398 -243 609 -370 615
-370 4 0 168 98 366 218 l359 219 2 369 2 369 -356 215 c-196 118 -363 216
-372 217 -9 1 -177 -96 -373 -215z m718 -24 c183 -112 330 -206 326 -209 -4
-4 -157 -98 -339 -209 l-333 -202 -341 208 c-233 141 -337 209 -328 215 8 4
158 96 334 203 176 107 326 195 334 196 7 0 163 -91 347 -202z m-686 -453
c162 -98 301 -183 308 -189 9 -9 12 -87 10 -344 l-3 -332 -335 203 -335 203
-3 338 -2 338 32 -19 c18 -11 166 -100 328 -198z m1028 -461 c-7 -6 -159 -100
-338 -208 l-325 -196 -3 332 c-2 310 -1 334 15 346 10 8 162 101 338 207 l320
194 3 -332 c2 -256 -1 -334 -10 -343z"/>
<path d="M6208 3714 c-105 -56 -54 -233 67 -234 62 0 125 65 125 131 0 89
-110 148 -192 103z"/>
<path d="M15500 3272 l0 -337 105 -105 c58 -58 105 -113 105 -123 0 -10 9 -35
20 -57 48 -94 174 -124 267 -63 81 54 97 199 30 271 -89 96 -243 75 -301 -42
l-19 -38 -83 83 -84 84 0 332 c0 326 0 333 -20 333 -20 0 -20 -7 -20 -338z
m469 -410 c92 -68 93 -189 2 -249 -95 -64 -231 10 -231 125 0 115 140 191 229
124z"/>
<path d="M16500 3237 l0 -372 123 -123 122 -122 573 0 c564 0 572 0 572 20 0
19 -8 20 -572 20 l-573 0 -102 103 -103 104 0 371 c0 365 0 372 -20 372 -20 0
-20 -7 -20 -373z"/>
<path d="M16740 3362 l0 -247 98 -98 97 -97 478 0 c450 0 478 1 475 18 -3 16
-35 17 -478 20 l-475 3 -77 77 -78 77 0 247 c0 241 -1 248 -20 248 -19 0 -20
-7 -20 -248z"/>
<path d="M14806 3470 c-61 -19 -126 -109 -126 -175 0 -43 32 -107 69 -138 78
-66 175 -59 248 17 130 136 -8 350 -191 296z m139 -49 c42 -23 78 -98 70 -144
-15 -81 -71 -129 -151 -129 -110 0 -182 120 -130 219 38 75 131 99 211 54z"/>
<path d="M5864 3324 c-44 -15 -60 -33 -73 -81 -34 -122 121 -211 207 -120 92
98 -7 245 -134 201z"/>
<path d="M5364 3016 c-29 -29 -34 -41 -34 -82 0 -64 27 -108 75 -124 49 -16
98 -5 133 30 82 81 23 210 -96 210 -37 0 -50 -6 -78 -34z"/>
<path d="M4895 2870 c-27 -11 -61 -49 -74 -83 -16 -42 2 -100 41 -132 28 -24
39 -27 85 -23 62 5 98 33 112 85 27 95 -75 190 -164 153z"/>
<path d="M4324 2757 c-106 -96 9 -268 136 -202 89 46 95 168 10 219 -47 27
-105 21 -146 -17z"/>
<path d="M9996 1535 c-3 -8 2 -21 10 -29 13 -14 11 -16 -17 -24 -18 -4 -35
-14 -37 -22 -3 -9 1 -11 11 -7 9 3 43 9 76 13 62 7 75 24 19 24 -26 0 -29 2
-18 15 7 8 10 22 6 30 -7 19 -42 20 -50 0z"/>
<path d="M9970 1441 c-98 -30 -160 -105 -160 -194 0 -55 5 -57 120 -64 118 -7
262 25 323 71 18 14 17 16 -3 58 -26 50 -74 104 -112 124 -29 15 -126 18 -168
5z m26 -87 c30 -29 27 -67 -8 -96 -64 -55 -148 42 -88 102 27 27 66 25 96 -6z
m188 4 c13 -19 14 -25 2 -43 -18 -26 -40 -30 -60 -10 -20 21 -20 39 0 59 21
22 40 20 58 -6z"/>
<path d="M10269 1414 l-10 -27 -24 23 c-41 39 -46 12 -7 -40 36 -49 72 -69 57
-32 -17 40 -16 51 4 68 25 22 27 34 6 34 -9 0 -20 -12 -26 -26z"/>
<path d="M7216 1415 c-3 -9 -6 -39 -6 -67 0 -49 -1 -50 -18 -35 -21 19 -93 23
-124 6 -43 -23 -61 -119 -34 -184 25 -59 102 -83 147 -46 22 18 23 18 39 -2
11 -13 23 -18 34 -14 15 6 16 25 14 179 -3 168 -4 173 -24 176 -13 2 -24 -4
-28 -13z m-19 -166 c20 -38 15 -77 -12 -104 -29 -30 -49 -31 -75 -5 -23 23
-28 97 -7 122 26 34 73 27 94 -13z"/>
<path d="M7837 1424 c-12 -13 -8 -52 7 -57 21 -8 49 16 44 39 -3 19 -38 31
-51 18z"/>
<path d="M8947 1424 c-4 -4 -7 -34 -7 -66 0 -59 0 -59 -22 -44 -34 24 -102 20
-133 -6 -54 -47 -52 -160 5 -210 36 -33 72 -36 117 -9 31 19 31 19 36 0 3 -10
12 -19 20 -19 33 0 38 25 35 191 -3 156 -4 164 -23 167 -12 2 -24 0 -28 -4z
m-43 -155 c21 -17 26 -29 26 -65 0 -76 -58 -110 -99 -58 -29 37 -27 89 4 119
29 30 35 31 69 4z"/>
<path d="M9147 1424 c-4 -4 -7 -80 -7 -169 0 -132 3 -165 15 -175 19 -15 45
-6 45 16 0 16 1 16 19 0 11 -10 37 -20 59 -23 33 -4 44 -1 72 24 55 50 58 165
5 210 -31 27 -99 31 -132 8 -22 -15 -22 -15 -25 47 -3 55 -6 63 -23 66 -12 2
-24 0 -28 -4z m158 -159 c31 -30 33 -82 4 -119 -41 -52 -99 -18 -99 58 0 36 5
48 26 65 34 27 40 26 69 -4z"/>
<path d="M10458 1419 c-10 -5 -21 -27 -24 -48 -4 -25 -13 -40 -27 -47 -27 -11
-26 -26 2 -39 19 -9 21 -18 21 -101 0 -71 4 -94 16 -105 11 -9 20 -10 32 -2
14 8 18 29 20 106 3 90 4 96 25 99 30 4 30 42 0 46 -17 2 -23 10 -23 27 0 19
6 24 33 27 24 2 32 8 32 23 0 17 -7 20 -45 22 -25 2 -53 -2 -62 -8z"/>
<path d="M11571 1417 c-25 -31 13 -66 46 -42 14 11 16 18 7 32 -14 23 -38 28
-53 10z"/>
<path d="M11685 1408 c-3 -13 -4 -90 -3 -172 3 -131 5 -150 21 -160 24 -14 47
15 47 60 0 31 30 70 37 49 12 -37 71 -110 88 -110 33 0 29 39 -9 100 -20 30
-36 59 -36 63 0 5 11 19 25 32 29 27 32 55 8 64 -11 5 -31 -9 -65 -44 l-48
-50 0 76 c0 41 -5 84 -10 95 -15 26 -48 25 -55 -3z"/>
<path d="M9800 1365 c-13 -25 -50 -24 -50 2 0 8 -5 13 -12 11 -23 -8 -19 -26
8 -35 23 -8 28 -15 28 -44 1 -44 18 -53 26 -14 4 17 14 44 23 62 13 25 14 32
3 36 -7 3 -19 -5 -26 -18z"/>
<path d="M7385 1325 c-45 -16 -61 -35 -75 -85 -10 -39 0 -101 22 -127 18 -22
71 -43 108 -43 56 0 123 51 105 80 -9 15 -23 12 -55 -11 -37 -28 -79 -28 -102
1 -34 42 -25 49 70 52 83 3 87 4 90 26 12 81 -76 138 -163 107z m77 -47 c9 -7
18 -22 20 -33 3 -18 -3 -20 -52 -20 -49 0 -55 2 -52 20 4 23 29 45 52 45 9 0
23 -6 32 -12z"/>
<path d="M7641 1329 c-44 -9 -64 -31 -64 -70 0 -39 19 -54 91 -75 59 -17 76
-39 46 -61 -25 -19 -64 -8 -90 25 -19 23 -24 25 -38 13 -22 -18 -20 -34 7 -59
28 -26 74 -37 122 -28 49 9 75 38 75 81 0 40 -19 56 -90 76 -59 17 -74 28 -59
45 17 20 52 17 83 -7 30 -24 56 -19 56 10 0 37 -72 64 -139 50z"/>
<path d="M8122 1319 c-17 -17 -20 -18 -32 -4 -8 10 -30 15 -60 15 -41 0 -52
-4 -74 -30 -14 -17 -28 -45 -31 -64 -9 -47 11 -111 42 -135 31 -25 89 -27 121
-5 21 15 22 14 22 -14 0 -62 -66 -81 -120 -36 -28 24 -33 25 -47 11 -37 -37
22 -80 106 -80 106 1 123 24 129 175 7 162 -11 216 -56 167z m-37 -54 c47 -46
24 -135 -35 -135 -60 0 -84 99 -34 139 34 27 40 26 69 -4z"/>
<path d="M8231 1326 c-8 -9 -11 -55 -9 -132 l3 -119 25 0 c24 0 25 2 30 86 6
99 18 121 64 117 l31 -3 5 -92 c5 -99 17 -126 48 -107 14 9 18 29 20 107 2 87
1 97 -20 120 -32 35 -67 40 -111 18 -20 -10 -37 -15 -37 -10 0 4 -9 13 -19 18
-14 8 -22 7 -30 -3z"/>
<path d="M8560 1327 c-19 -7 -44 -27 -58 -47 -51 -74 -8 -190 75 -206 69 -13
143 21 143 66 0 26 -31 26 -55 0 -35 -39 -115 -16 -115 33 0 14 12 17 79 17
90 0 107 11 96 59 -6 30 -56 81 -78 81 -7 0 -21 2 -32 5 -11 2 -36 -1 -55 -8z
m82 -54 c10 -9 18 -24 18 -35 0 -15 -8 -18 -55 -18 -60 0 -71 15 -38 52 20 22
51 23 75 1z"/>
<path d="M9592 1331 c-7 -4 -23 -41 -37 -82 -14 -40 -28 -81 -31 -89 -4 -9
-19 22 -38 75 -25 74 -35 91 -54 93 -38 6 -36 -25 8 -139 36 -92 41 -113 32
-133 -8 -18 -20 -26 -44 -28 -25 -2 -33 -8 -33 -22 0 -41 95 -41 122 0 24 38
122 296 116 310 -6 16 -27 24 -41 15z"/>
<path d="M10580 1330 c-22 -14 -27 -217 -6 -245 12 -16 18 -18 33 -9 14 9 19
28 23 91 7 95 18 115 69 111 30 -3 36 0 39 18 4 31 -45 48 -83 28 -23 -12 -29
-12 -42 1 -17 18 -14 17 -33 5z"/>
<path d="M10828 1333 c-90 -14 -126 -168 -53 -230 52 -45 158 -38 191 12 28
43 0 59 -43 25 -35 -27 -87 -26 -107 2 -29 42 -22 47 72 50 83 3 87 4 90 26 5
32 -15 78 -42 95 -26 17 -71 26 -108 20z m64 -55 c9 -7 18 -22 20 -33 3 -18
-3 -20 -52 -20 -49 0 -55 2 -52 20 4 23 29 45 52 45 9 0 23 -6 32 -12z"/>
<path d="M11093 1333 c-88 -18 -120 -175 -47 -232 55 -43 158 -35 190 14 28
43 0 59 -43 25 -35 -27 -87 -26 -107 2 -29 42 -22 47 72 50 83 3 87 4 90 26 5
33 -15 78 -43 96 -25 17 -80 26 -112 19z m69 -55 c9 -7 18 -22 20 -33 3 -18
-3 -20 -52 -20 -49 0 -55 2 -52 20 4 23 29 45 52 45 9 0 23 -6 32 -12z"/>
<path d="M11292 1328 c-8 -8 -12 -66 -12 -179 0 -174 3 -187 43 -167 13 7 17
22 17 69 l0 60 26 -20 c91 -71 201 52 155 172 -24 62 -106 89 -159 51 -12 -8
-22 -11 -22 -5 0 18 -36 31 -48 19z m164 -85 c19 -44 6 -93 -28 -112 -23 -13
-29 -13 -51 2 -48 31 -44 128 5 146 35 13 59 1 74 -36z"/>
<path d="M11576 1324 c-13 -12 -16 -38 -16 -118 0 -114 13 -151 47 -130 15 10
18 28 21 127 2 107 1 117 -17 126 -15 8 -23 7 -35 -5z"/>
<path d="M12143 1329 c-51 -15 -83 -61 -83 -122 0 -69 26 -112 79 -128 73 -22
161 17 161 71 0 35 -29 36 -60 1 -34 -36 -69 -40 -96 -10 -23 25 -26 98 -5
122 21 26 71 21 103 -10 27 -26 29 -26 45 -10 44 44 -65 109 -144 86z"/>
<path d="M12405 1325 c-49 -17 -72 -47 -81 -102 -13 -88 55 -159 145 -150 62
7 102 49 108 114 11 108 -72 174 -172 138z m69 -45 c28 -10 48 -64 39 -102
-22 -89 -123 -70 -123 22 0 30 7 47 25 65 28 29 26 28 59 15z"/>
<path d="M7835 1318 c-3 -8 -4 -66 -3 -129 l3 -114 25 0 25 0 0 125 c0 122 -1
125 -23 128 -12 2 -24 -3 -27 -10z"/>
<path d="M12614 1317 c-2 -7 -3 -62 -2 -122 3 -91 6 -110 21 -119 31 -19 47
17 47 105 0 83 11 103 52 97 22 -3 23 -8 28 -97 4 -73 9 -96 22 -104 33 -21
48 8 48 92 0 87 13 115 51 109 23 -3 24 -7 29 -97 4 -73 9 -96 22 -104 12 -8
21 -7 32 2 13 11 16 34 16 112 0 86 -3 102 -20 119 -24 24 -86 27 -118 4 -20
-14 -24 -14 -38 0 -20 20 -83 21 -111 1 -19 -13 -22 -13 -27 0 -7 19 -45 20
-52 2z"/>
<path d="M10206 1209 c-79 -37 -180 -53 -294 -46 l-92 6 11 -22 c44 -86 130
-119 252 -97 103 18 194 98 185 163 l-3 24 -59 -28z"/>
<path d="M11950 1125 c-18 -22 -1 -50 31 -50 20 0 24 5 24 30 0 23 -5 31 -21
33 -11 2 -27 -4 -34 -13z"/>
</g>
</svg>
